<mxfile host="Electron" modified="2024-04-28T00:33:59.255Z" agent="Mozilla/5.0 (Windows NT 10.0; Win64; x64) AppleWebKit/537.36 (KHTML, like Gecko) draw.io/24.2.5 Chrome/120.0.6099.109 Electron/28.1.0 Safari/537.36" etag="MxHNJFoiIOEVG-SLF6oc" version="24.2.5" type="device">
  <diagram name="Page-1" id="R63N2cjpCU_-1Ry6ztQc">
    <mxGraphModel dx="1099" dy="828" grid="1" gridSize="10" guides="1" tooltips="1" connect="1" arrows="1" fold="1" page="1" pageScale="1" pageWidth="850" pageHeight="1100" math="0" shadow="0">
      <root>
        <mxCell id="0" />
        <mxCell id="1" parent="0" />
        <mxCell id="yrf01u52gIWf9P0iYSv2-2" value="" style="rounded=0;whiteSpace=wrap;html=1;" parent="1" vertex="1">
          <mxGeometry x="640" y="439" width="200" height="360" as="geometry" />
        </mxCell>
        <mxCell id="yrf01u52gIWf9P0iYSv2-3" value="" style="rounded=0;whiteSpace=wrap;html=1;" parent="1" vertex="1">
          <mxGeometry x="200" y="600" width="200" height="280" as="geometry" />
        </mxCell>
        <mxCell id="yrf01u52gIWf9P0iYSv2-4" value="" style="rounded=0;whiteSpace=wrap;html=1;" parent="1" vertex="1">
          <mxGeometry x="200" y="200" width="200" height="360" as="geometry" />
        </mxCell>
        <mxCell id="yrf01u52gIWf9P0iYSv2-5" value="AddRoundKey" style="rounded=0;whiteSpace=wrap;html=1;" parent="1" vertex="1">
          <mxGeometry x="240" y="120" width="120" height="40" as="geometry" />
        </mxCell>
        <mxCell id="yrf01u52gIWf9P0iYSv2-6" value="SubBytes" style="rounded=0;whiteSpace=wrap;html=1;" parent="1" vertex="1">
          <mxGeometry x="240" y="240" width="120" height="40" as="geometry" />
        </mxCell>
        <mxCell id="yrf01u52gIWf9P0iYSv2-7" value="X" style="rounded=0;whiteSpace=wrap;html=1;" parent="1" vertex="1">
          <mxGeometry x="240" y="320" width="120" height="40" as="geometry" />
        </mxCell>
        <mxCell id="yrf01u52gIWf9P0iYSv2-9" value="Y" style="rounded=0;whiteSpace=wrap;html=1;" parent="1" vertex="1">
          <mxGeometry x="240" y="400" width="120" height="40" as="geometry" />
        </mxCell>
        <mxCell id="yrf01u52gIWf9P0iYSv2-13" value="AddRoundKey" style="rounded=0;whiteSpace=wrap;html=1;" parent="1" vertex="1">
          <mxGeometry x="240" y="480" width="120" height="40" as="geometry" />
        </mxCell>
        <mxCell id="yrf01u52gIWf9P0iYSv2-14" value="SubBytes" style="rounded=0;whiteSpace=wrap;html=1;" parent="1" vertex="1">
          <mxGeometry x="240" y="640" width="120" height="40" as="geometry" />
        </mxCell>
        <mxCell id="yrf01u52gIWf9P0iYSv2-15" value="X" style="rounded=0;whiteSpace=wrap;html=1;" parent="1" vertex="1">
          <mxGeometry x="240" y="720" width="120" height="40" as="geometry" />
        </mxCell>
        <mxCell id="yrf01u52gIWf9P0iYSv2-19" value="AddRoundKey" style="rounded=0;whiteSpace=wrap;html=1;" parent="1" vertex="1">
          <mxGeometry x="240" y="800" width="120" height="40" as="geometry" />
        </mxCell>
        <mxCell id="yrf01u52gIWf9P0iYSv2-20" value="&lt;font style=&quot;font-size: 18px;&quot;&gt;Plain Text&lt;/font&gt;" style="text;html=1;strokeColor=none;fillColor=none;align=center;verticalAlign=middle;whiteSpace=wrap;rounded=0;" parent="1" vertex="1">
          <mxGeometry x="245" y="60" width="110" height="20" as="geometry" />
        </mxCell>
        <mxCell id="yrf01u52gIWf9P0iYSv2-21" value="" style="endArrow=classic;html=1;rounded=0;exitX=0.5;exitY=1;exitDx=0;exitDy=0;entryX=0.5;entryY=0;entryDx=0;entryDy=0;" parent="1" source="yrf01u52gIWf9P0iYSv2-20" target="yrf01u52gIWf9P0iYSv2-5" edge="1">
          <mxGeometry width="50" height="50" relative="1" as="geometry">
            <mxPoint x="410" y="160" as="sourcePoint" />
            <mxPoint x="460" y="110" as="targetPoint" />
          </mxGeometry>
        </mxCell>
        <mxCell id="yrf01u52gIWf9P0iYSv2-22" value="" style="endArrow=classic;html=1;rounded=0;exitX=0.5;exitY=1;exitDx=0;exitDy=0;entryX=0.5;entryY=0;entryDx=0;entryDy=0;" parent="1" target="yrf01u52gIWf9P0iYSv2-6" edge="1">
          <mxGeometry width="50" height="50" relative="1" as="geometry">
            <mxPoint x="299.5" y="160" as="sourcePoint" />
            <mxPoint x="299.5" y="200" as="targetPoint" />
          </mxGeometry>
        </mxCell>
        <mxCell id="yrf01u52gIWf9P0iYSv2-23" value="" style="endArrow=classic;html=1;rounded=0;exitX=0.5;exitY=1;exitDx=0;exitDy=0;entryX=0.5;entryY=0;entryDx=0;entryDy=0;" parent="1" edge="1">
          <mxGeometry width="50" height="50" relative="1" as="geometry">
            <mxPoint x="299.5" y="280" as="sourcePoint" />
            <mxPoint x="299.5" y="320" as="targetPoint" />
          </mxGeometry>
        </mxCell>
        <mxCell id="yrf01u52gIWf9P0iYSv2-24" value="" style="endArrow=classic;html=1;rounded=0;exitX=0.5;exitY=1;exitDx=0;exitDy=0;entryX=0.5;entryY=0;entryDx=0;entryDy=0;" parent="1" target="yrf01u52gIWf9P0iYSv2-14" edge="1">
          <mxGeometry width="50" height="50" relative="1" as="geometry">
            <mxPoint x="299.5" y="520" as="sourcePoint" />
            <mxPoint x="300" y="600" as="targetPoint" />
          </mxGeometry>
        </mxCell>
        <mxCell id="yrf01u52gIWf9P0iYSv2-25" value="" style="endArrow=classic;html=1;rounded=0;exitX=0.5;exitY=1;exitDx=0;exitDy=0;entryX=0.5;entryY=0;entryDx=0;entryDy=0;" parent="1" edge="1">
          <mxGeometry width="50" height="50" relative="1" as="geometry">
            <mxPoint x="299.5" y="360" as="sourcePoint" />
            <mxPoint x="299.5" y="400" as="targetPoint" />
          </mxGeometry>
        </mxCell>
        <mxCell id="yrf01u52gIWf9P0iYSv2-26" value="" style="endArrow=classic;html=1;rounded=0;exitX=0.5;exitY=1;exitDx=0;exitDy=0;entryX=0.5;entryY=0;entryDx=0;entryDy=0;" parent="1" edge="1">
          <mxGeometry width="50" height="50" relative="1" as="geometry">
            <mxPoint x="299.5" y="440" as="sourcePoint" />
            <mxPoint x="299.5" y="480" as="targetPoint" />
          </mxGeometry>
        </mxCell>
        <mxCell id="yrf01u52gIWf9P0iYSv2-31" value="" style="endArrow=classic;html=1;rounded=0;exitX=0.5;exitY=1;exitDx=0;exitDy=0;entryX=0.5;entryY=0;entryDx=0;entryDy=0;" parent="1" edge="1">
          <mxGeometry width="50" height="50" relative="1" as="geometry">
            <mxPoint x="299.5" y="680" as="sourcePoint" />
            <mxPoint x="299.5" y="720" as="targetPoint" />
          </mxGeometry>
        </mxCell>
        <mxCell id="yrf01u52gIWf9P0iYSv2-32" value="" style="endArrow=classic;html=1;rounded=0;exitX=0.5;exitY=1;exitDx=0;exitDy=0;entryX=0.5;entryY=0;entryDx=0;entryDy=0;" parent="1" edge="1">
          <mxGeometry width="50" height="50" relative="1" as="geometry">
            <mxPoint x="299.5" y="760" as="sourcePoint" />
            <mxPoint x="299.5" y="800" as="targetPoint" />
          </mxGeometry>
        </mxCell>
        <mxCell id="yrf01u52gIWf9P0iYSv2-36" value="" style="endArrow=classic;html=1;rounded=0;exitX=0.5;exitY=1;exitDx=0;exitDy=0;" parent="1" edge="1">
          <mxGeometry width="50" height="50" relative="1" as="geometry">
            <mxPoint x="299.41" y="840" as="sourcePoint" />
            <mxPoint x="299.91" y="920" as="targetPoint" />
          </mxGeometry>
        </mxCell>
        <mxCell id="yrf01u52gIWf9P0iYSv2-37" value="&lt;font style=&quot;font-size: 18px;&quot;&gt;Cipher Text&lt;/font&gt;" style="text;html=1;strokeColor=none;fillColor=none;align=center;verticalAlign=middle;whiteSpace=wrap;rounded=0;" parent="1" vertex="1">
          <mxGeometry x="250" y="920" width="100" height="20" as="geometry" />
        </mxCell>
        <mxCell id="yrf01u52gIWf9P0iYSv2-38" value="&lt;font style=&quot;font-size: 18px;&quot;&gt;LAST ROUND&lt;/font&gt;" style="text;html=1;strokeColor=none;fillColor=none;align=center;verticalAlign=middle;whiteSpace=wrap;rounded=0;rotation=-90;" parent="1" vertex="1">
          <mxGeometry x="160" y="720" width="120" height="30" as="geometry" />
        </mxCell>
        <mxCell id="yrf01u52gIWf9P0iYSv2-39" value="" style="endArrow=classic;html=1;rounded=0;" parent="1" edge="1">
          <mxGeometry width="50" height="50" relative="1" as="geometry">
            <mxPoint x="300" y="580" as="sourcePoint" />
            <mxPoint x="300" y="180" as="targetPoint" />
            <Array as="points">
              <mxPoint x="440" y="580" />
              <mxPoint x="440" y="180" />
            </Array>
          </mxGeometry>
        </mxCell>
        <mxCell id="yrf01u52gIWf9P0iYSv2-40" value="&lt;font style=&quot;font-size: 18px;&quot;&gt;n-1&lt;/font&gt;" style="text;html=1;strokeColor=none;fillColor=none;align=center;verticalAlign=middle;whiteSpace=wrap;rounded=0;rotation=-90;" parent="1" vertex="1">
          <mxGeometry x="140" y="359" width="640" height="30" as="geometry" />
        </mxCell>
        <mxCell id="yrf01u52gIWf9P0iYSv2-41" value="" style="endArrow=classic;html=1;rounded=0;" parent="1" edge="1">
          <mxGeometry relative="1" as="geometry">
            <mxPoint x="140" y="60" as="sourcePoint" />
            <mxPoint x="140" y="960" as="targetPoint" />
          </mxGeometry>
        </mxCell>
        <mxCell id="yrf01u52gIWf9P0iYSv2-42" value="&lt;font style=&quot;font-size: 18px;&quot;&gt;Encryption&lt;/font&gt;" style="edgeLabel;resizable=0;html=1;align=center;verticalAlign=middle;rotation=-90;" parent="yrf01u52gIWf9P0iYSv2-41" connectable="0" vertex="1">
          <mxGeometry relative="1" as="geometry" />
        </mxCell>
        <mxCell id="yrf01u52gIWf9P0iYSv2-43" value="" style="endArrow=none;dashed=1;html=1;rounded=0;" parent="1" edge="1">
          <mxGeometry width="50" height="50" relative="1" as="geometry">
            <mxPoint x="520" y="1000" as="sourcePoint" />
            <mxPoint x="520" as="targetPoint" />
          </mxGeometry>
        </mxCell>
        <mxCell id="yrf01u52gIWf9P0iYSv2-44" value="&lt;font style=&quot;font-size: 18px;&quot;&gt;Cipher Text&lt;/font&gt;" style="text;html=1;strokeColor=none;fillColor=none;align=center;verticalAlign=middle;whiteSpace=wrap;rounded=0;" parent="1" vertex="1">
          <mxGeometry x="690" y="919" width="100" height="20" as="geometry" />
        </mxCell>
        <mxCell id="yrf01u52gIWf9P0iYSv2-45" value="" style="endArrow=classic;html=1;rounded=0;exitX=0.5;exitY=0;exitDx=0;exitDy=0;entryX=0.5;entryY=0;entryDx=0;entryDy=0;" parent="1" edge="1">
          <mxGeometry width="50" height="50" relative="1" as="geometry">
            <mxPoint x="739.57" y="839" as="sourcePoint" />
            <mxPoint x="739.57" y="759" as="targetPoint" />
          </mxGeometry>
        </mxCell>
        <mxCell id="yrf01u52gIWf9P0iYSv2-46" value="AddRoundKey" style="rounded=0;whiteSpace=wrap;html=1;" parent="1" vertex="1">
          <mxGeometry x="680" y="560" width="120" height="40" as="geometry" />
        </mxCell>
        <mxCell id="yrf01u52gIWf9P0iYSv2-47" value="Y" style="rounded=0;whiteSpace=wrap;html=1;" parent="1" vertex="1">
          <mxGeometry x="680" y="480" width="120" height="40" as="geometry" />
        </mxCell>
        <mxCell id="yrf01u52gIWf9P0iYSv2-49" value="InvSubBytes" style="rounded=0;whiteSpace=wrap;html=1;" parent="1" vertex="1">
          <mxGeometry x="680" y="639" width="120" height="40" as="geometry" />
        </mxCell>
        <mxCell id="yrf01u52gIWf9P0iYSv2-50" value="X" style="rounded=0;whiteSpace=wrap;html=1;" parent="1" vertex="1">
          <mxGeometry x="680" y="719" width="120" height="40" as="geometry" />
        </mxCell>
        <mxCell id="yrf01u52gIWf9P0iYSv2-54" value="" style="endArrow=none;html=1;rounded=0;exitX=0.5;exitY=1;exitDx=0;exitDy=0;entryX=0.5;entryY=0;entryDx=0;entryDy=0;endFill=0;startArrow=classic;startFill=1;" parent="1" edge="1">
          <mxGeometry width="50" height="50" relative="1" as="geometry">
            <mxPoint x="739.5" y="519" as="sourcePoint" />
            <mxPoint x="739.5" y="559" as="targetPoint" />
          </mxGeometry>
        </mxCell>
        <mxCell id="yrf01u52gIWf9P0iYSv2-55" value="" style="endArrow=none;html=1;rounded=0;exitX=0.5;exitY=1;exitDx=0;exitDy=0;entryX=0.5;entryY=0;entryDx=0;entryDy=0;endFill=0;startArrow=classic;startFill=1;" parent="1" edge="1">
          <mxGeometry width="50" height="50" relative="1" as="geometry">
            <mxPoint x="739.5" y="599" as="sourcePoint" />
            <mxPoint x="739.5" y="639" as="targetPoint" />
          </mxGeometry>
        </mxCell>
        <mxCell id="yrf01u52gIWf9P0iYSv2-56" value="" style="endArrow=none;html=1;rounded=0;exitX=0.5;exitY=1;exitDx=0;exitDy=0;entryX=0.5;entryY=0;entryDx=0;entryDy=0;endFill=0;startArrow=classic;startFill=1;" parent="1" edge="1">
          <mxGeometry width="50" height="50" relative="1" as="geometry">
            <mxPoint x="739.5" y="679" as="sourcePoint" />
            <mxPoint x="739.5" y="719" as="targetPoint" />
          </mxGeometry>
        </mxCell>
        <mxCell id="yrf01u52gIWf9P0iYSv2-61" value="AddRoundKey" style="rounded=0;whiteSpace=wrap;html=1;" parent="1" vertex="1">
          <mxGeometry x="680" y="839" width="120" height="40" as="geometry" />
        </mxCell>
        <mxCell id="yrf01u52gIWf9P0iYSv2-62" value="" style="rounded=0;whiteSpace=wrap;html=1;" parent="1" vertex="1">
          <mxGeometry x="640" y="120" width="200" height="280" as="geometry" />
        </mxCell>
        <mxCell id="yrf01u52gIWf9P0iYSv2-63" value="AddRoundKey" style="rounded=0;whiteSpace=wrap;html=1;" parent="1" vertex="1">
          <mxGeometry x="680" y="160" width="120" height="40" as="geometry" />
        </mxCell>
        <mxCell id="yrf01u52gIWf9P0iYSv2-64" value="InvSubBytes" style="rounded=0;whiteSpace=wrap;html=1;" parent="1" vertex="1">
          <mxGeometry x="680" y="240" width="120" height="40" as="geometry" />
        </mxCell>
        <mxCell id="yrf01u52gIWf9P0iYSv2-65" value="X" style="rounded=0;whiteSpace=wrap;html=1;" parent="1" vertex="1">
          <mxGeometry x="680" y="320" width="120" height="40" as="geometry" />
        </mxCell>
        <mxCell id="yrf01u52gIWf9P0iYSv2-70" value="" style="endArrow=none;html=1;rounded=0;exitX=0.5;exitY=1;exitDx=0;exitDy=0;entryX=0.5;entryY=0;entryDx=0;entryDy=0;endFill=0;startArrow=classic;startFill=1;" parent="1" edge="1">
          <mxGeometry width="50" height="50" relative="1" as="geometry">
            <mxPoint x="739.5" y="200" as="sourcePoint" />
            <mxPoint x="739.5" y="240" as="targetPoint" />
          </mxGeometry>
        </mxCell>
        <mxCell id="yrf01u52gIWf9P0iYSv2-71" value="" style="endArrow=none;html=1;rounded=0;exitX=0.5;exitY=1;exitDx=0;exitDy=0;entryX=0.5;entryY=0;entryDx=0;entryDy=0;endFill=0;startArrow=classic;startFill=1;" parent="1" edge="1">
          <mxGeometry width="50" height="50" relative="1" as="geometry">
            <mxPoint x="739.5" y="280" as="sourcePoint" />
            <mxPoint x="739.5" y="320" as="targetPoint" />
          </mxGeometry>
        </mxCell>
        <mxCell id="yrf01u52gIWf9P0iYSv2-74" value="&lt;font style=&quot;font-size: 18px;&quot;&gt;LAST ROUND&lt;/font&gt;" style="text;html=1;strokeColor=none;fillColor=none;align=center;verticalAlign=middle;whiteSpace=wrap;rounded=0;rotation=-90;" parent="1" vertex="1">
          <mxGeometry x="600" y="240" width="120" height="30" as="geometry" />
        </mxCell>
        <mxCell id="yrf01u52gIWf9P0iYSv2-75" value="" style="endArrow=classic;html=1;rounded=0;entryX=0.5;entryY=0;entryDx=0;entryDy=0;exitX=0.5;exitY=0;exitDx=0;exitDy=0;" parent="1" source="yrf01u52gIWf9P0iYSv2-47" edge="1">
          <mxGeometry width="50" height="50" relative="1" as="geometry">
            <mxPoint x="739" y="439" as="sourcePoint" />
            <mxPoint x="739" y="359" as="targetPoint" />
          </mxGeometry>
        </mxCell>
        <mxCell id="yrf01u52gIWf9P0iYSv2-76" value="" style="endArrow=none;html=1;rounded=0;exitX=0.5;exitY=1;exitDx=0;exitDy=0;entryX=0.5;entryY=0;entryDx=0;entryDy=0;endFill=0;startArrow=classic;startFill=1;" parent="1" edge="1">
          <mxGeometry width="50" height="50" relative="1" as="geometry">
            <mxPoint x="739.52" y="879" as="sourcePoint" />
            <mxPoint x="739.52" y="919" as="targetPoint" />
          </mxGeometry>
        </mxCell>
        <mxCell id="yrf01u52gIWf9P0iYSv2-77" value="&lt;font style=&quot;font-size: 18px;&quot;&gt;Plain Text&lt;/font&gt;" style="text;html=1;strokeColor=none;fillColor=none;align=center;verticalAlign=middle;whiteSpace=wrap;rounded=0;" parent="1" vertex="1">
          <mxGeometry x="685" y="60" width="110" height="20" as="geometry" />
        </mxCell>
        <mxCell id="yrf01u52gIWf9P0iYSv2-78" value="" style="endArrow=classic;html=1;rounded=0;exitX=0.5;exitY=0;exitDx=0;exitDy=0;entryX=0.5;entryY=0;entryDx=0;entryDy=0;" parent="1" source="yrf01u52gIWf9P0iYSv2-63" edge="1">
          <mxGeometry width="50" height="50" relative="1" as="geometry">
            <mxPoint x="740.5" y="200" as="sourcePoint" />
            <mxPoint x="739.5" y="80" as="targetPoint" />
          </mxGeometry>
        </mxCell>
        <mxCell id="yrf01u52gIWf9P0iYSv2-79" value="" style="endArrow=none;html=1;rounded=0;endFill=0;startArrow=classic;startFill=1;" parent="1" edge="1">
          <mxGeometry relative="1" as="geometry">
            <mxPoint x="900" y="60" as="sourcePoint" />
            <mxPoint x="900" y="960" as="targetPoint" />
          </mxGeometry>
        </mxCell>
        <mxCell id="yrf01u52gIWf9P0iYSv2-80" value="&lt;div&gt;&lt;font style=&quot;font-size: 18px;&quot;&gt;Decryption&lt;/font&gt;&lt;/div&gt;" style="edgeLabel;resizable=0;html=1;align=center;verticalAlign=middle;rotation=-90;" parent="yrf01u52gIWf9P0iYSv2-79" connectable="0" vertex="1">
          <mxGeometry relative="1" as="geometry" />
        </mxCell>
        <mxCell id="yrf01u52gIWf9P0iYSv2-81" value="" style="endArrow=none;html=1;rounded=0;endFill=0;startArrow=classic;startFill=1;" parent="1" edge="1">
          <mxGeometry width="50" height="50" relative="1" as="geometry">
            <mxPoint x="740" y="819" as="sourcePoint" />
            <mxPoint x="740" y="419" as="targetPoint" />
            <Array as="points">
              <mxPoint x="600" y="819" />
              <mxPoint x="600" y="419" />
            </Array>
          </mxGeometry>
        </mxCell>
        <mxCell id="yrf01u52gIWf9P0iYSv2-82" value="&lt;font style=&quot;font-size: 18px;&quot;&gt;ROUNDS STILL TO BE DETERMINED (BETWEEN 16 AND 30)&lt;/font&gt;" style="text;html=1;strokeColor=none;fillColor=none;align=center;verticalAlign=middle;whiteSpace=wrap;rounded=0;rotation=-90;" parent="1" vertex="1">
          <mxGeometry x="260" y="599" width="640" height="30" as="geometry" />
        </mxCell>
        <mxCell id="yrf01u52gIWf9P0iYSv2-83" value="" style="endArrow=none;dashed=1;html=1;rounded=0;" parent="1" edge="1">
          <mxGeometry width="50" height="50" relative="1" as="geometry">
            <mxPoint x="960" y="1000" as="sourcePoint" />
            <mxPoint x="80" y="1000" as="targetPoint" />
          </mxGeometry>
        </mxCell>
        <mxCell id="yrf01u52gIWf9P0iYSv2-84" value="&lt;font style=&quot;font-size: 18px;&quot;&gt;Possible Operations&lt;/font&gt;" style="text;html=1;strokeColor=none;fillColor=none;align=center;verticalAlign=middle;whiteSpace=wrap;rounded=0;" parent="1" vertex="1">
          <mxGeometry x="440" y="1040" width="170" height="20" as="geometry" />
        </mxCell>
        <mxCell id="yrf01u52gIWf9P0iYSv2-85" value="X" style="rounded=0;whiteSpace=wrap;html=1;" parent="1" vertex="1">
          <mxGeometry x="240" y="1080" width="120" height="40" as="geometry" />
        </mxCell>
        <mxCell id="yrf01u52gIWf9P0iYSv2-86" value="MixColumns / InvMixColumns" style="rounded=0;whiteSpace=wrap;html=1;" parent="1" vertex="1">
          <mxGeometry x="600" y="1200" width="120" height="40" as="geometry" />
        </mxCell>
        <mxCell id="yrf01u52gIWf9P0iYSv2-87" value="Y" style="rounded=0;whiteSpace=wrap;html=1;" parent="1" vertex="1">
          <mxGeometry x="680" y="1080" width="120" height="40" as="geometry" />
        </mxCell>
        <mxCell id="yrf01u52gIWf9P0iYSv2-88" value="MixRows / InvMixRows" style="rounded=0;whiteSpace=wrap;html=1;" parent="1" vertex="1">
          <mxGeometry x="760" y="1200" width="120" height="40" as="geometry" />
        </mxCell>
        <mxCell id="yrf01u52gIWf9P0iYSv2-89" value="" style="endArrow=classic;html=1;rounded=0;entryX=0.5;entryY=0;entryDx=0;entryDy=0;exitX=0.25;exitY=1;exitDx=0;exitDy=0;" parent="1" target="yrf01u52gIWf9P0iYSv2-86" edge="1">
          <mxGeometry width="50" height="50" relative="1" as="geometry">
            <mxPoint x="720" y="1120" as="sourcePoint" />
            <mxPoint x="670" y="1200" as="targetPoint" />
            <Array as="points">
              <mxPoint x="720" y="1150" />
              <mxPoint x="720" y="1160" />
              <mxPoint x="660" y="1160" />
            </Array>
          </mxGeometry>
        </mxCell>
        <mxCell id="yrf01u52gIWf9P0iYSv2-90" value="" style="endArrow=classic;html=1;rounded=0;entryX=0.5;entryY=0;entryDx=0;entryDy=0;exitX=0.25;exitY=1;exitDx=0;exitDy=0;" parent="1" target="yrf01u52gIWf9P0iYSv2-88" edge="1">
          <mxGeometry width="50" height="50" relative="1" as="geometry">
            <mxPoint x="760" y="1120" as="sourcePoint" />
            <mxPoint x="710" y="1200" as="targetPoint" />
            <Array as="points">
              <mxPoint x="760" y="1150" />
              <mxPoint x="760" y="1160" />
              <mxPoint x="820" y="1160" />
            </Array>
          </mxGeometry>
        </mxCell>
        <mxCell id="yrf01u52gIWf9P0iYSv2-91" value="ShiftRows / InvShiftRows" style="rounded=0;whiteSpace=wrap;html=1;" parent="1" vertex="1">
          <mxGeometry x="160" y="1200" width="120" height="40" as="geometry" />
        </mxCell>
        <mxCell id="yrf01u52gIWf9P0iYSv2-92" value="ShiftColumns / InvShiftColumns" style="rounded=0;whiteSpace=wrap;html=1;" parent="1" vertex="1">
          <mxGeometry x="160" y="1280" width="120" height="40" as="geometry" />
        </mxCell>
        <mxCell id="yrf01u52gIWf9P0iYSv2-93" value="SwapColumns / InvSwapColumns" style="rounded=0;whiteSpace=wrap;html=1;" parent="1" vertex="1">
          <mxGeometry x="320" y="1280" width="120" height="40" as="geometry" />
        </mxCell>
        <mxCell id="yrf01u52gIWf9P0iYSv2-94" value="SwapRows / InvSwapRows" style="rounded=0;whiteSpace=wrap;html=1;" parent="1" vertex="1">
          <mxGeometry x="320" y="1200" width="120" height="40" as="geometry" />
        </mxCell>
        <mxCell id="yrf01u52gIWf9P0iYSv2-95" value="" style="endArrow=classic;html=1;rounded=0;entryX=0.5;entryY=0;entryDx=0;entryDy=0;exitX=0.25;exitY=1;exitDx=0;exitDy=0;" parent="1" edge="1">
          <mxGeometry width="50" height="50" relative="1" as="geometry">
            <mxPoint x="280" y="1120" as="sourcePoint" />
            <mxPoint x="220" y="1200" as="targetPoint" />
            <Array as="points">
              <mxPoint x="280" y="1150" />
              <mxPoint x="280" y="1160" />
              <mxPoint x="220" y="1160" />
            </Array>
          </mxGeometry>
        </mxCell>
        <mxCell id="yrf01u52gIWf9P0iYSv2-96" value="" style="endArrow=classic;html=1;rounded=0;entryX=0.5;entryY=0;entryDx=0;entryDy=0;exitX=0.25;exitY=1;exitDx=0;exitDy=0;" parent="1" edge="1">
          <mxGeometry width="50" height="50" relative="1" as="geometry">
            <mxPoint x="320" y="1120" as="sourcePoint" />
            <mxPoint x="380" y="1200" as="targetPoint" />
            <Array as="points">
              <mxPoint x="320" y="1150" />
              <mxPoint x="320" y="1160" />
              <mxPoint x="380" y="1160" />
            </Array>
          </mxGeometry>
        </mxCell>
        <mxCell id="yrf01u52gIWf9P0iYSv2-97" value="" style="endArrow=classic;html=1;rounded=0;exitX=0.5;exitY=1;exitDx=0;exitDy=0;" parent="1" edge="1">
          <mxGeometry width="50" height="50" relative="1" as="geometry">
            <mxPoint x="298" y="1120" as="sourcePoint" />
            <mxPoint x="280" y="1300" as="targetPoint" />
            <Array as="points">
              <mxPoint x="298" y="1300" />
            </Array>
          </mxGeometry>
        </mxCell>
        <mxCell id="yrf01u52gIWf9P0iYSv2-98" value="" style="endArrow=classic;html=1;rounded=0;exitX=0.5;exitY=1;exitDx=0;exitDy=0;" parent="1" edge="1">
          <mxGeometry width="50" height="50" relative="1" as="geometry">
            <mxPoint x="302" y="1120" as="sourcePoint" />
            <mxPoint x="320" y="1300" as="targetPoint" />
            <Array as="points">
              <mxPoint x="302" y="1300" />
            </Array>
          </mxGeometry>
        </mxCell>
        <mxCell id="Dmbqbab2QedPamlACnHR-1" value="01" style="text;html=1;align=center;verticalAlign=middle;whiteSpace=wrap;rounded=0;" parent="1" vertex="1">
          <mxGeometry x="556" y="1205" width="60" height="30" as="geometry" />
        </mxCell>
        <mxCell id="Dmbqbab2QedPamlACnHR-2" value="02" style="text;html=1;align=center;verticalAlign=middle;whiteSpace=wrap;rounded=0;" parent="1" vertex="1">
          <mxGeometry x="865" y="1205" width="60" height="30" as="geometry" />
        </mxCell>
        <mxCell id="Dmbqbab2QedPamlACnHR-3" value="01" style="text;html=1;align=center;verticalAlign=middle;whiteSpace=wrap;rounded=0;" parent="1" vertex="1">
          <mxGeometry x="116" y="1205" width="60" height="30" as="geometry" />
        </mxCell>
        <mxCell id="Dmbqbab2QedPamlACnHR-4" value="02" style="text;html=1;align=center;verticalAlign=middle;whiteSpace=wrap;rounded=0;" parent="1" vertex="1">
          <mxGeometry x="425" y="1205" width="60" height="30" as="geometry" />
        </mxCell>
        <mxCell id="Dmbqbab2QedPamlACnHR-5" value="03" style="text;html=1;align=center;verticalAlign=middle;whiteSpace=wrap;rounded=0;" parent="1" vertex="1">
          <mxGeometry x="115" y="1285" width="60" height="30" as="geometry" />
        </mxCell>
        <mxCell id="Dmbqbab2QedPamlACnHR-6" value="04" style="text;html=1;align=center;verticalAlign=middle;whiteSpace=wrap;rounded=0;" parent="1" vertex="1">
          <mxGeometry x="425" y="1285" width="60" height="30" as="geometry" />
        </mxCell>
      </root>
    </mxGraphModel>
  </diagram>
</mxfile>
